<?xml version="1.0" encoding="utf-8"?>
<!-- Generator: Adobe Illustrator 24.1.0, SVG Export Plug-In . SVG Version: 6.00 Build 0)  -->
<svg version="1.1" xmlns="http://www.w3.org/2000/svg" xmlns:xlink="http://www.w3.org/1999/xlink" x="0px" y="0px"
	 viewBox="0 0 500 500" style="enable-background:new 0 0 500 500;" xml:space="preserve">
<g id="Calque_1">
	<g>
		<path d="M480,36.6c-1,43.5-11.9,81.5-29,117.9c-32.1,68.2-78.9,125.3-134.1,176c-4,3.7-6.4,7.5-7.3,12.8
			c-3.8,22.2-7.5,44.5-11.8,66.6c-0.9,4.5-3.2,9.4-6.4,12.5c-18.6,18.3-37.6,36.1-56.5,54.1c-8.5,8-11.3,7.2-15.4-3.8
			c-8.2-22.5-16.5-45-24.5-67.5c-1.5-4.2-3.3-5.2-7.6-4.5c-14.2,2.3-28.2,1.7-42.2-1.9c-2-0.5-5.4,0.9-7,2.5
			c-7.6,7.8-15,15.9-22.2,24.1c-4.3,4.9-8.2,5.1-12.8,0.3c-6.5-6.6-13.4-12.9-20.2-19.2c-3.8-3.5-4-6.9-0.6-10.9
			c6.9-8.2,13.8-16.4,20.2-24.9c1.4-1.8,1.9-5.8,0.9-7.7c-5.7-11-8.8-22.5-9-34.8c-0.1-4.4-2-6-5.8-7.1
			c-22.6-6.4-45.1-13.1-67.7-19.6c-12.6-3.6-13.3-6-4.8-16.3c16.1-19.3,32.2-38.6,48.1-58.1c3.7-4.6,8-7.1,13.7-8.7
			c22.7-6.1,45.3-12.3,67.8-19c3.6-1.1,7.1-4.2,9.5-7.3c44.7-58,99.1-104.6,162.8-140.5c35.3-19.9,72.8-34.4,113.4-39.1
			c12.8-1.5,25.9-0.7,38.9-1c5.2-0.1,7.6,2.7,8.1,7.7C479.1,26.1,479.7,32.8,480,36.6z M239.2,205.6c-0.6,26.3,20.5,48.3,47,48.9
			c26.2,0.7,48.7-20.6,49.2-46.7c0.6-27.1-20.6-49.3-47.7-49.9C262,157.3,239.8,179.2,239.2,205.6z"/>
	</g>
</g>
<g id="Calque_2">
</g>
</svg>
