<svg id="Calque_1" data-name="Calque 1" xmlns="http://www.w3.org/2000/svg" xmlns:xlink="http://www.w3.org/1999/xlink" viewBox="0 0 289.14 89.27"><defs><style>.cls-1{fill:url(#Dégradé_sans_nom_2);}.cls-2,.cls-3,.cls-4{isolation:isolate;}.cls-3,.cls-4{font-size:50px;font-family:Barlow-SemiBold, Barlow;font-weight:600;}.cls-3{fill:#ba95e7;}.cls-4{fill:#9965f3;}.cls-5{letter-spacing:-0.05em;}.cls-6{letter-spacing:-0.01em;}</style><linearGradient id="Dégradé_sans_nom_2" x1="-48.34" y1="300.33" x2="-48.64" y2="300.01" gradientTransform="matrix(293.25, 0, 0, -293.8, 14320.33, 88236.23)" gradientUnits="userSpaceOnUse"><stop offset="0" stop-color="#ba95e7"/><stop offset="0.14" stop-color="#ba95e7"/><stop offset="1" stop-color="#9965f3"/></linearGradient></defs><g id="Logo-4"><path id="Logo-5" class="cls-1" d="M141.29,10.17a54.36,54.36,0,0,1-5.51,22.38c-6.09,13-15,23.78-25.45,33.41A4.08,4.08,0,0,0,109,68.39c-.72,4.21-1.43,8.44-2.24,12.64a4.7,4.7,0,0,1-1.22,2.37c-3.53,3.47-7.13,6.85-10.72,10.27C93.16,95.19,92.62,95,91.85,93c-1.56-4.28-3.14-8.55-4.65-12.82-.29-.79-.63-1-1.44-.85a19.32,19.32,0,0,1-8-.36,1.72,1.72,0,0,0-1.33.47c-1.45,1.48-2.85,3-4.22,4.58a1.41,1.41,0,0,1-2.43.06c-1.23-1.26-2.54-2.45-3.83-3.65a1.3,1.3,0,0,1-.11-2.07c1.3-1.55,2.61-3.11,3.83-4.72a1.7,1.7,0,0,0,.17-1.47,14.59,14.59,0,0,1-1.71-6.6A1.25,1.25,0,0,0,67,64.17c-4.29-1.21-8.56-2.48-12.85-3.72-2.39-.68-2.52-1.14-.91-3.09q4.59-5.49,9.13-11A4.78,4.78,0,0,1,65,44.68c4.31-1.16,8.6-2.33,12.87-3.61a3.9,3.9,0,0,0,1.8-1.38A101.59,101.59,0,0,1,110.56,13,57.23,57.23,0,0,1,132.08,5.6c2.43-.28,4.92-.13,7.39-.19,1,0,1.44.51,1.53,1.46C141.12,8.18,141.23,9.45,141.29,10.17ZM95.59,42.25a9.13,9.13,0,0,0,18.25.42,9.22,9.22,0,0,0-9-9.47h-.07A9.24,9.24,0,0,0,95.59,42.25Z" transform="translate(-52.19 -5.41)"/></g><g id="Logo"><g id="aidTudes" class="cls-2"><text class="cls-3" transform="translate(89.39 60.53)">aid</text><text class="cls-4" transform="translate(156.19 60.53)"><tspan class="cls-5">T</tspan><tspan x="26.65" y="0">ud</tspan><tspan class="cls-6" x="81.65" y="0">e</tspan><tspan x="108.3" y="0">s</tspan></text></g></g></svg>